<?xml version="1.0" encoding="utf-8"?>
<svg viewBox="0 0 244.488 244.488" fill="#000000" xmlns="http://www.w3.org/2000/svg">
  <g transform="matrix(1, 0, 0, 1, 0, -7.105427357601002e-15)">
    <path d="m238.488,32.998h-232.488c-3.313,0-6,2.687-6,6v166.492c0,3.314 2.687,6 6,6s6-2.686 6-6v-142.493h27.748v101.393c0,3.313 2.687,6 6,6s6-2.687 6-6v-101.393h140.992v101.393c0,3.313 2.687,6 6,6s6-2.687 6-6v-101.393h27.748v142.493c0,3.314 2.687,6 6,6s6-2.686 6-6v-166.492c0-3.313-2.686-6-6-6zm-226.488,17.999v-5.999h220.488v5.999h-220.488z" style="stroke: rgb(255, 255, 255); fill: rgb(255, 255, 255);"/>
    <path d="m162.175,145.38h-79.862c-3.313,0-6,2.687-6,6s2.687,6 6,6h12.635v9.011c0,3.313 2.687,6 6,6s6-2.687 6-6v-9.011h30.592v9.011c0,3.313 2.687,6 6,6s6-2.687 6-6v-9.011h12.635c3.313,0 6-2.687 6-6s-2.687-6-6-6z" style="stroke: rgb(255, 255, 255); fill: rgb(255, 255, 255);"/>
    <path d="m162.175,127.89h-79.862c-3.313,0-6,2.687-6,6s2.687,6 6,6h79.861c3.313,0 6-2.687 6-6s-2.686-6-5.999-6z" style="stroke: rgb(255, 255, 255); fill: rgb(255, 255, 255);"/>
  </g>
</svg>